<?xml version="1.0" standalone="no"?>
<!DOCTYPE svg PUBLIC "-//W3C//DTD SVG 20010904//EN"
 "http://www.w3.org/TR/2001/REC-SVG-20010904/DTD/svg10.dtd">
<svg version="1.0" xmlns="http://www.w3.org/2000/svg"
 width="300.000000pt" height="300.000000pt" viewBox="0 0 300.000000 300.000000"
 preserveAspectRatio="xMidYMid meet">
<metadata>
Created by potrace 1.10, written by Peter Selinger 2001-2011
</metadata>
<g transform="translate(0.000000,300.000000) scale(0.100000,-0.100000)"
fill="#000000" stroke="none">
<path d="M1302 2039 c-31 -12 -45 -54 -39 -118 l6 -53 -24 22 c-24 22 -39 53
-49 102 -6 24 -9 26 -44 22 -71 -10 -128 -25 -205 -56 -123 -48 -165 -102
-116 -147 31 -28 108 -42 229 -40 58 0 123 -2 145 -5 l40 -6 -43 16 c-74 27
-39 26 44 -2 100 -33 281 -43 389 -22 47 10 101 12 165 8 52 -3 97 -5 99 -4 1
2 -16 8 -39 14 -23 6 -39 14 -36 17 3 3 33 -2 67 -11 65 -19 128 -16 204 10
36 12 38 12 21 -1 -11 -8 -24 -15 -30 -15 -5 0 -7 -3 -4 -6 10 -10 76 24 87
45 16 29 -8 73 -61 111 -45 33 -167 75 -247 86 -51 7 -51 7 -106 -45 -56 -53
-84 -67 -65 -32 5 11 10 33 10 48 0 16 5 34 12 41 6 6 9 15 5 19 -10 9 -389
11 -415 2z m18 -13 c0 -3 -4 -8 -10 -11 -5 -3 -10 -1 -10 4 0 6 5 11 10 11 6
0 10 -2 10 -4z m100 -31 c0 -5 -5 -3 -10 5 -5 8 -10 20 -10 25 0 6 5 3 10 -5
5 -8 10 -19 10 -25z m150 25 c0 -5 -4 -10 -10 -10 -5 0 -10 5 -10 10 0 6 5 10
10 10 6 0 10 -4 10 -10z m70 0 c0 -5 -2 -10 -4 -10 -3 0 -8 5 -11 10 -3 6 -1
10 4 10 6 0 11 -4 11 -10z m-30 -10 c0 -3 -5 -11 -10 -16 -8 -8 -6 -15 4 -23
11 -10 17 -8 29 9 17 25 30 12 22 -22 -3 -14 2 -32 13 -46 16 -20 21 -22 47
-12 16 6 35 20 43 31 14 20 14 20 45 -4 30 -23 34 -23 56 -8 18 12 25 13 29 3
5 -16 27 -15 41 2 9 11 8 18 -4 30 -13 13 -14 16 -2 16 7 0 17 -3 21 -7 3 -4
16 -8 28 -10 12 -2 28 -12 35 -23 8 -11 20 -20 27 -20 7 0 21 -8 32 -18 11
-11 33 -23 49 -29 44 -14 44 -39 1 -47 -20 -4 -39 -7 -43 -7 -5 -1 -12 -4 -18
-8 -17 -13 -118 -13 -168 0 -26 6 -54 8 -64 3 -10 -4 -43 -9 -73 -9 -30 -1
-68 -4 -85 -8 -86 -17 -204 -28 -249 -22 -28 4 -105 20 -171 36 -67 16 -147
29 -182 29 -41 0 -63 4 -63 11 0 19 130 4 271 -31 128 -31 241 -38 339 -21 61
11 47 13 -110 15 -111 1 -154 6 -242 28 -144 37 -239 46 -257 24 -21 -26 3
-46 56 -46 28 0 42 -4 38 -10 -6 -10 -78 -8 -182 6 -39 5 -73 28 -73 50 0 8
12 21 28 31 15 10 29 20 32 23 10 12 140 60 180 66 31 5 40 3 40 -8 0 -23 45
-59 63 -52 11 4 19 0 24 -12 11 -30 31 -46 55 -42 21 3 23 8 24 65 0 34 2 64
5 66 8 8 54 19 47 12 -10 -11 11 -47 23 -39 6 3 14 16 19 28 8 19 9 18 15 -11
10 -42 28 -58 45 -38 10 11 10 18 1 29 -9 10 -9 16 -1 21 15 9 40 -13 40 -36
0 -25 16 -32 32 -13 31 39 68 71 82 71 9 0 16 -3 16 -7z m-240 -20 c0 -5 -4
-10 -10 -10 -5 0 -10 5 -10 10 0 6 5 10 10 10 6 0 10 -4 10 -10z m160 6 c0 -3
-4 -8 -10 -11 -5 -3 -10 -1 -10 4 0 6 5 11 10 11 6 0 10 -2 10 -4z m320 -25
c0 -5 -6 -14 -14 -20 -12 -10 -13 -8 -9 8 5 21 23 30 23 12z m40 -1 c0 -5 -7
-7 -15 -4 -8 4 -15 8 -15 10 0 2 7 4 15 4 8 0 15 -4 15 -10z m-723 -15 c8 -9
13 -19 10 -22 -6 -5 -37 21 -37 31 0 10 11 6 27 -9z m263 5 c0 -5 -5 -10 -11
-10 -5 0 -7 5 -4 10 3 6 8 10 11 10 2 0 4 -4 4 -10z m80 0 c0 -5 -4 -10 -10
-10 -5 0 -10 5 -10 10 0 6 5 10 10 10 6 0 10 -4 10 -10z m300 0 c0 -5 -4 -10
-10 -10 -5 0 -10 5 -10 10 0 6 5 10 10 10 6 0 10 -4 10 -10z m-135 -10 c3 -5
1 -10 -4 -10 -6 0 -11 5 -11 10 0 6 2 10 4 10 3 0 8 -4 11 -10z m195 0 c0 -5
-5 -10 -11 -10 -5 0 -7 5 -4 10 3 6 8 10 11 10 2 0 4 -4 4 -10z m45 -10 c3 -5
-1 -10 -9 -10 -9 0 -16 5 -16 10 0 6 4 10 9 10 6 0 13 -4 16 -10z m169 -21
c27 -16 46 -32 43 -35 -4 -5 -107 55 -107 62 0 10 20 1 64 -27z m-941 -136
c-7 -2 -21 -2 -30 0 -10 3 -4 5 12 5 17 0 24 -2 18 -5z m604 -9 c-3 -3 -12 -4
-19 -1 -8 3 -5 6 6 6 11 1 17 -2 13 -5z"/>
<path d="M1564 1982 c-15 -9 -15 -59 1 -72 9 -7 16 -6 24 4 15 18 -8 80 -25
68z m26 -52 c0 -5 -4 -10 -10 -10 -5 0 -10 5 -10 10 0 6 5 10 10 10 6 0 10 -4
10 -10z"/>
<path d="M1303 1954 c-3 -8 1 -22 9 -30 13 -13 16 -13 28 0 10 13 10 19 0 31
-16 19 -29 19 -37 -1z m27 -14 c0 -5 -4 -10 -10 -10 -5 0 -10 5 -10 10 0 6 5
10 10 10 6 0 10 -4 10 -10z"/>
<path d="M1940 1925 c-15 -18 -5 -35 21 -35 12 0 19 7 19 19 0 24 -25 34 -40
16z m30 -15 c0 -5 -4 -10 -10 -10 -5 0 -10 5 -10 10 0 6 5 10 10 10 6 0 10 -4
10 -10z"/>
<path d="M1210 2005 c0 -23 22 -85 31 -91 7 -4 9 1 5 14 -4 12 -3 37 2 56 9
32 8 34 -14 32 -13 0 -24 -5 -24 -11z"/>
<path d="M1719 1992 c-6 -14 -9 -34 -7 -45 2 -16 8 -13 35 21 l32 40 -25 5
c-20 4 -27 -1 -35 -21z"/>
<path d="M1094 1696 c-71 -31 -99 -113 -65 -191 22 -50 63 -75 122 -75 109 0
175 131 113 225 -32 49 -109 67 -170 41z m111 -51 c36 -35 36 -115 0 -150 -48
-49 -120 -23 -132 47 -16 103 67 169 132 103z"/>
<path d="M2085 1699 c-82 -24 -72 -107 19 -150 40 -19 54 -43 37 -63 -19 -22
-63 -20 -95 5 l-27 21 7 -28 c9 -39 16 -45 61 -51 51 -7 100 18 109 54 12 44
-7 76 -64 106 -53 29 -62 43 -40 65 18 18 42 15 72 -9 l26 -20 -7 33 c-3 18
-6 34 -7 34 -6 8 -68 10 -91 3z"/>
<path d="M796 1678 c-11 -41 -8 -51 10 -34 8 9 26 16 40 16 24 0 24 -1 24 -99
0 -56 -4 -103 -10 -106 -21 -13 -8 -20 39 -20 46 0 48 1 35 20 -10 13 -14 49
-14 112 l0 93 28 0 c15 0 33 -5 40 -12 9 -9 12 -5 12 20 l0 32 -99 0 c-94 0
-99 -1 -105 -22z"/>
<path d="M1340 1681 c13 -25 13 -196 0 -221 -9 -16 -5 -18 35 -22 43 -3 57 4
35 17 -6 3 -10 51 -10 109 l0 103 30 -5 c38 -5 54 -25 46 -57 -5 -18 -15 -27
-36 -31 l-29 -6 30 -52 c17 -28 33 -59 36 -69 4 -13 12 -17 27 -13 11 3 30 6
41 6 20 0 20 1 -1 18 -11 9 -31 31 -43 49 l-21 32 25 25 c33 33 33 79 0 111
-21 22 -33 25 -100 25 -72 0 -75 -1 -65 -19z"/>
<path d="M1560 1681 c0 -11 -3 -28 -7 -38 -6 -17 -6 -17 14 0 11 9 30 17 44
17 l24 0 -5 -102 c-3 -57 -8 -107 -12 -113 -4 -6 12 -10 42 -10 32 0 45 4 40
10 -5 6 -10 56 -12 113 l-3 102 24 0 c14 0 33 -8 44 -17 20 -17 20 -17 14 0
-4 10 -7 27 -7 38 0 17 -8 19 -100 19 -92 0 -100 -2 -100 -19z"/>
<path d="M1837 1680 c6 -23 -52 -196 -73 -221 -20 -22 -18 -24 26 -24 31 0 39
3 35 15 -8 26 8 38 58 41 46 4 49 3 54 -22 4 -23 11 -28 44 -31 43 -4 46 -2
25 21 -20 22 -88 212 -82 228 4 10 -8 13 -43 13 -44 0 -49 -2 -44 -20z m60
-16 c-3 -3 -12 -4 -19 -1 -8 3 -5 6 6 6 11 1 17 -2 13 -5z m8 -91 l14 -43 -38
0 -38 0 21 63 c13 38 22 54 24 42 2 -11 9 -39 17 -62z"/>
<path d="M830 1345 c0 -30 5 -55 10 -55 6 0 10 8 10 18 0 9 3 34 6 55 5 30 4
37 -10 37 -13 0 -16 -11 -16 -55z"/>
<path d="M880 1381 c0 -11 -4 -23 -10 -26 -5 -3 -10 -20 -10 -38 0 -35 16 -27
23 13 4 21 4 20 6 -7 2 -56 21 -36 21 22 0 42 -3 55 -15 55 -8 0 -15 -9 -15
-19z"/>
<path d="M940 1345 c0 -52 1 -55 25 -55 15 0 25 6 25 15 0 9 -6 12 -15 9 -18
-7 -21 22 -2 30 10 5 10 7 0 12 -18 8 -16 24 2 24 8 0 15 5 15 10 0 6 -11 10
-25 10 -24 0 -25 -3 -25 -55z"/>
<path d="M1022 1375 c8 -19 8 -31 -1 -51 -15 -33 -5 -46 15 -20 12 17 14 18
14 3 0 -9 7 -17 15 -17 14 0 14 3 2 28 -9 17 -11 35 -6 47 11 27 11 35 0 35
-5 0 -12 -8 -14 -17 -4 -17 -5 -17 -6 0 0 9 -8 17 -16 17 -12 0 -13 -4 -3 -25z"/>
<path d="M1100 1344 c0 -72 22 -69 24 4 1 36 -3 52 -11 52 -9 0 -13 -18 -13
-56z"/>
<path d="M1167 1393 c-4 -3 -7 -26 -7 -50 0 -31 5 -45 16 -50 19 -7 47 24 37
40 -3 6 -12 2 -20 -8 -12 -17 -13 -15 -12 21 0 21 3 33 6 27 5 -14 33 -18 33
-5 0 22 -38 40 -53 25z"/>
<path d="M1254 1387 c-3 -8 -4 -32 -2 -53 2 -31 7 -39 23 -39 17 0 20 7 20 50
0 39 -4 50 -18 53 -9 2 -20 -3 -23 -11z m23 -59 c-2 -13 -4 -5 -4 17 -1 22 1
32 4 23 2 -10 2 -28 0 -40z"/>
<path d="M1386 1384 c-4 -11 1 -25 14 -39 23 -25 27 -43 5 -25 -21 17 -33 3
-14 -16 18 -17 49 -9 49 14 0 9 -10 27 -22 40 l-23 24 24 -7 c17 -5 22 -4 19
6 -7 21 -44 23 -52 3z"/>
<path d="M1460 1390 c0 -5 5 -10 10 -10 6 0 10 -20 10 -45 0 -25 5 -45 10 -45
6 0 10 20 10 45 0 25 5 45 10 45 6 0 10 5 10 10 0 6 -13 10 -30 10 -16 0 -30
-4 -30 -10z"/>
<path d="M1540 1356 c0 -51 20 -76 45 -56 17 14 21 100 5 100 -5 0 -10 -20
-10 -45 0 -25 -4 -45 -10 -45 -5 0 -10 20 -10 45 0 25 -4 45 -10 45 -5 0 -10
-20 -10 -44z"/>
<path d="M1630 1345 c0 -46 3 -55 18 -55 26 0 42 20 42 51 0 43 -10 59 -36 59
-22 0 -24 -4 -24 -55z m40 0 c0 -19 -4 -35 -10 -35 -5 0 -10 16 -10 35 0 19 5
35 10 35 6 0 10 -16 10 -35z"/>
<path d="M1720 1344 c0 -72 22 -69 24 4 1 36 -3 52 -11 52 -9 0 -13 -18 -13
-56z"/>
<path d="M1787 1393 c-14 -13 -7 -93 8 -99 34 -13 57 42 39 90 -6 16 -35 22
-47 9z m33 -42 c0 -17 -4 -33 -10 -36 -6 -4 -10 8 -10 29 0 20 5 36 10 36 6 0
10 -13 10 -29z"/>
<path d="M1927 1393 c-4 -3 -7 -26 -7 -50 0 -31 5 -45 16 -50 19 -7 47 24 37
40 -3 6 -12 2 -20 -8 -12 -17 -13 -15 -12 21 0 21 3 33 6 27 5 -14 33 -18 33
-5 0 22 -38 40 -53 25z"/>
<path d="M2010 1345 c0 -30 5 -55 10 -55 6 0 10 25 10 55 0 30 -4 55 -10 55
-5 0 -10 -25 -10 -55z"/>
<path d="M2060 1390 c0 -5 5 -10 10 -10 6 0 10 -20 10 -45 0 -25 5 -45 10 -45
6 0 10 20 10 45 0 25 5 45 10 45 6 0 10 5 10 10 0 6 -13 10 -30 10 -16 0 -30
-4 -30 -10z"/>
<path d="M2142 1373 c6 -16 10 -40 9 -55 -1 -19 4 -28 14 -28 10 0 14 10 13
33 -1 18 4 43 11 55 10 18 9 22 -3 22 -8 0 -17 -8 -19 -17 -4 -17 -5 -17 -6 0
0 9 -8 17 -16 17 -12 0 -13 -5 -3 -27z"/>
<path d="M1375 1269 c-27 -4 -83 -20 -124 -34 -41 -14 -76 -23 -79 -20 -6 5
43 25 63 25 8 0 16 4 19 8 3 5 -7 7 -22 5 -15 -2 -97 -7 -182 -12 -167 -8
-213 -21 -223 -63 -11 -42 14 -71 103 -116 83 -41 169 -68 240 -74 32 -3 34
-1 42 35 9 42 27 81 34 74 3 -2 1 -15 -4 -28 -23 -63 -23 -76 2 -81 26 -5 25
-13 12 96 -3 23 1 39 11 47 13 11 14 7 8 -32 -9 -61 9 -127 38 -138 12 -4 109
-7 214 -6 158 1 196 5 210 17 10 9 26 18 36 19 16 4 14 10 -17 44 -20 22 -34
33 -32 25 2 -8 7 -30 10 -49 5 -29 4 -32 -9 -21 -8 7 -15 29 -15 49 0 20 -6
43 -12 50 -11 10 -9 11 7 5 11 -3 41 -29 68 -57 47 -49 48 -50 95 -43 70 9
194 53 244 86 52 35 82 82 74 115 -6 24 -52 56 -78 54 -7 0 -3 -5 10 -11 12
-6 22 -15 22 -20 0 -5 -15 -1 -32 8 -49 26 -155 30 -217 9 -29 -9 -55 -15 -57
-12 -3 3 14 11 38 19 l43 15 -96 -1 c-82 -1 -93 -3 -70 -13 40 -18 13 -15 -54
6 -70 22 -248 33 -320 20z m265 -38 c19 -8 13 -9 -30 -4 -116 15 -211 7 -335
-25 -132 -35 -249 -50 -258 -35 -4 6 26 12 76 16 45 3 134 20 197 37 103 27
126 30 220 26 58 -3 116 -9 130 -15z m-480 -1 c-8 -5 -24 -9 -35 -9 -20 0 -20
0 0 9 11 5 27 9 35 9 13 1 13 0 0 -9z m618 -11 c20 10 28 9 43 -5 16 -14 25
-15 63 -5 85 21 261 5 273 -25 14 -36 -98 -120 -185 -139 -31 -6 -33 -5 -28
13 4 11 0 24 -9 32 -13 10 -19 10 -33 -3 -17 -15 -19 -15 -36 5 l-18 21 -24
-27 c-14 -14 -26 -26 -28 -26 -2 0 -15 11 -30 25 -35 32 -69 32 -90 0 -20 -31
-20 -36 2 -29 14 5 15 4 2 -5 -11 -8 -12 -13 -3 -19 9 -6 7 -11 -7 -20 -18
-11 -20 -10 -20 9 0 14 -5 19 -17 17 -13 -3 -17 -12 -16 -31 2 -25 0 -26 -20
-15 -12 7 -25 12 -30 13 -4 0 -16 15 -27 32 -21 34 -56 37 -47 3 5 -19 -28
-46 -38 -30 -4 6 -4 19 0 29 3 11 0 21 -9 24 -17 7 -41 -18 -31 -33 3 -5 1
-10 -4 -10 -6 0 -11 -8 -12 -17 -1 -13 -3 -11 -7 5 -4 13 -10 23 -14 23 -5 -1
-12 -1 -18 -1 -5 0 -10 -9 -10 -20 0 -23 -9 -25 -34 -7 -15 11 -18 26 -17 74
1 70 -14 93 -48 72 -11 -7 -22 -22 -25 -32 -4 -15 -11 -18 -30 -15 -18 4 -32
-2 -47 -18 -21 -22 -21 -25 -6 -42 20 -22 12 -35 -13 -22 -10 5 -20 7 -22 4
-8 -8 -129 37 -170 63 -21 12 -42 23 -48 23 -16 0 -41 46 -35 63 4 8 18 20 33
26 40 15 194 24 212 12 11 -8 1 -11 -38 -11 -55 0 -78 -18 -53 -43 19 -19 136
-12 231 13 148 38 229 52 266 46 52 -10 141 -9 159 1 12 7 30 7 53 1 24 -7 43
-6 60 1z m-588 -139 c0 -5 -2 -10 -4 -10 -3 0 -8 5 -11 10 -3 6 -1 10 4 10 6
0 11 -4 11 -10z m670 6 c0 -3 -4 -8 -10 -11 -5 -3 -10 -1 -10 4 0 6 5 11 10
11 6 0 10 -2 10 -4z m70 -16 c0 -5 -7 -10 -16 -10 -8 0 -12 5 -9 10 3 6 10 10
16 10 5 0 9 -4 9 -10z m-760 -10 c0 -5 -4 -10 -10 -10 -5 0 -10 5 -10 10 0 6
5 10 10 10 6 0 10 -4 10 -10z m275 -10 c3 -5 1 -10 -4 -10 -6 0 -11 5 -11 10
0 6 2 10 4 10 3 0 8 -4 11 -10z m375 -10 c0 -5 -2 -10 -4 -10 -3 0 -8 5 -11
10 -3 6 -1 10 4 10 6 0 11 -4 11 -10z m-638 -22 c-7 -7 -12 -8 -12 -2 0 14 12
26 19 19 2 -3 -1 -11 -7 -17z m458 2 c0 -5 -4 -10 -10 -10 -5 0 -10 5 -10 10
0 6 5 10 10 10 6 0 10 -4 10 -10z m285 1 c-14 -13 -103 -26 -90 -13 9 9 34 15
85 21 8 0 10 -2 5 -8z m-385 -11 c0 -5 -4 -10 -10 -10 -5 0 -10 5 -10 10 0 6
5 10 10 10 6 0 10 -4 10 -10z m-40 -10 c0 -5 -5 -10 -11 -10 -5 0 -7 5 -4 10
3 6 8 10 11 10 2 0 4 -4 4 -10z m195 0 c3 -5 1 -10 -4 -10 -6 0 -11 5 -11 10
0 6 2 10 4 10 3 0 8 -4 11 -10z m-365 -20 c0 -5 -2 -10 -4 -10 -3 0 -8 5 -11
10 -3 6 -1 10 4 10 6 0 11 -4 11 -10z m130 0 c0 -5 -4 -10 -10 -10 -5 0 -10 5
-10 10 0 6 5 10 10 10 6 0 10 -4 10 -10z m120 0 c0 -5 -4 -10 -10 -10 -5 0
-10 5 -10 10 0 6 5 10 10 10 6 0 10 -4 10 -10z"/>
<path d="M1951 1106 c-9 -10 -8 -16 4 -26 21 -17 51 6 34 26 -6 8 -15 14 -19
14 -4 0 -13 -6 -19 -14z m29 -6 c0 -5 -4 -10 -10 -10 -5 0 -10 5 -10 10 0 6 5
10 10 10 6 0 10 -4 10 -10z"/>
<path d="M1574 1088 c-12 -19 -14 -57 -3 -64 12 -7 41 15 34 26 -3 5 -1 12 5
15 8 5 7 11 -1 21 -14 17 -25 18 -35 2z m16 -48 c0 -5 -4 -10 -10 -10 -5 0
-10 5 -10 10 0 6 5 10 10 10 6 0 10 -4 10 -10z"/>
<path d="M1314 1075 c-7 -18 3 -35 21 -35 18 0 28 32 13 42 -19 11 -28 10 -34
-7z m36 -9 c0 -11 -19 -15 -25 -6 -3 5 1 10 9 10 9 0 16 -2 16 -4z"/>
</g>
</svg>
